<mxfile host="65bd71144e">
    <diagram id="uxVpDPEQxBj6oMdUfCJH" name="PÃ¡gina-1">
        <mxGraphModel dx="722" dy="573" grid="1" gridSize="10" guides="1" tooltips="1" connect="1" arrows="1" fold="1" page="1" pageScale="1" pageWidth="827" pageHeight="1169" math="0" shadow="0">
            <root>
                <mxCell id="0"/>
                <mxCell id="1" parent="0"/>
                <mxCell id="4" value="" style="edgeStyle=none;html=1;strokeColor=#000000;fontColor=#000000;" parent="1" source="2" target="3" edge="1">
                    <mxGeometry relative="1" as="geometry"/>
                </mxCell>
                <mxCell id="2" value="INICIO" style="ellipse;whiteSpace=wrap;html=1;strokeColor=#000000;fontColor=#000000;fillColor=#FF9999;" parent="1" vertex="1">
                    <mxGeometry x="160" y="40" width="80" height="40" as="geometry"/>
                </mxCell>
                <mxCell id="24" value="" style="edgeStyle=none;html=1;strokeColor=#000000;fontColor=#000000;" edge="1" parent="1" source="3" target="23">
                    <mxGeometry relative="1" as="geometry"/>
                </mxCell>
                <mxCell id="3" value="codigo" style="shape=parallelogram;perimeter=parallelogramPerimeter;whiteSpace=wrap;html=1;fixedSize=1;strokeColor=#000000;fontColor=#000000;fillColor=#FFFF99;" parent="1" vertex="1">
                    <mxGeometry x="160" y="120" width="80" height="40" as="geometry"/>
                </mxCell>
                <mxCell id="20" value="" style="edgeStyle=orthogonalEdgeStyle;html=1;endArrow=classic;endFill=1;entryX=0.5;entryY=0;entryDx=0;entryDy=0;strokeColor=#000000;fontColor=#000000;" parent="1" source="5" target="19" edge="1">
                    <mxGeometry relative="1" as="geometry">
                        <mxPoint x="480" y="340" as="targetPoint"/>
                    </mxGeometry>
                </mxCell>
                <mxCell id="28" value="" style="edgeStyle=none;html=1;strokeColor=#000000;fontColor=#000000;" edge="1" parent="1" source="5" target="27">
                    <mxGeometry relative="1" as="geometry"/>
                </mxCell>
                <mxCell id="5" value="codigo != 0" style="rhombus;whiteSpace=wrap;html=1;strokeColor=#000000;fontColor=#000000;fillColor=#CC99FF;" parent="1" vertex="1">
                    <mxGeometry x="160" y="280" width="80" height="80" as="geometry"/>
                </mxCell>
                <mxCell id="10" value="" style="edgeStyle=none;html=1;strokeColor=#000000;fontColor=#000000;" parent="1" source="7" target="9" edge="1">
                    <mxGeometry relative="1" as="geometry"/>
                </mxCell>
                <mxCell id="7" value="nota_final = (parcial1 + parcial2 + parcial3) / 3" style="whiteSpace=wrap;html=1;strokeColor=#000000;fontColor=#000000;fillColor=#9999FF;" parent="1" vertex="1">
                    <mxGeometry x="60" y="500" width="280" height="40" as="geometry"/>
                </mxCell>
                <mxCell id="12" value="" style="edgeStyle=none;html=1;strokeColor=#000000;fontColor=#000000;" parent="1" source="9" target="11" edge="1">
                    <mxGeometry relative="1" as="geometry"/>
                </mxCell>
                <mxCell id="9" value="codigo, nota_final" style="shape=document;whiteSpace=wrap;html=1;boundedLbl=1;strokeColor=#000000;fontColor=#000000;fillColor=#FFFF99;" parent="1" vertex="1">
                    <mxGeometry x="140" y="580" width="120" height="60" as="geometry"/>
                </mxCell>
                <mxCell id="14" value="" style="edgeStyle=orthogonalEdgeStyle;html=1;entryX=0.5;entryY=0;entryDx=0;entryDy=0;strokeColor=#000000;fontColor=#000000;exitX=1;exitY=0.5;exitDx=0;exitDy=0;" parent="1" source="11" target="13" edge="1">
                    <mxGeometry relative="1" as="geometry"/>
                </mxCell>
                <mxCell id="15" style="edgeStyle=orthogonalEdgeStyle;html=1;exitX=0;exitY=0.5;exitDx=0;exitDy=0;entryX=0.5;entryY=1;entryDx=0;entryDy=0;endArrow=none;endFill=0;strokeColor=#000000;fontColor=#000000;" parent="1" source="11" target="13" edge="1">
                    <mxGeometry relative="1" as="geometry">
                        <mxPoint x="190" y="885.5" as="targetPoint"/>
                        <Array as="points">
                            <mxPoint x="100" y="720"/>
                            <mxPoint x="100" y="840"/>
                            <mxPoint x="320" y="840"/>
                        </Array>
                    </mxGeometry>
                </mxCell>
                <mxCell id="11" value="nota_final &amp;lt; 3" style="rhombus;whiteSpace=wrap;html=1;strokeColor=#000000;fontColor=#000000;fillColor=#CC99FF;" parent="1" vertex="1">
                    <mxGeometry x="140" y="680" width="120" height="80" as="geometry"/>
                </mxCell>
                <mxCell id="13" value="reprobados += 1" style="whiteSpace=wrap;html=1;strokeColor=#000000;fontColor=#000000;fillColor=#9999FF;" parent="1" vertex="1">
                    <mxGeometry x="262.5" y="760" width="115" height="40" as="geometry"/>
                </mxCell>
                <mxCell id="22" value="" style="edgeStyle=orthogonalEdgeStyle;html=1;endArrow=classic;endFill=1;strokeColor=#000000;fontColor=#000000;" parent="1" source="19" target="21" edge="1">
                    <mxGeometry relative="1" as="geometry"/>
                </mxCell>
                <mxCell id="19" value="reprobados" style="shape=document;whiteSpace=wrap;html=1;boundedLbl=1;strokeColor=#000000;fontColor=#000000;fillColor=#FFFF99;" parent="1" vertex="1">
                    <mxGeometry x="280" y="360" width="80" height="40" as="geometry"/>
                </mxCell>
                <mxCell id="21" value="FIN" style="ellipse;whiteSpace=wrap;html=1;strokeColor=#000000;fontColor=#000000;fillColor=#FF9999;" parent="1" vertex="1">
                    <mxGeometry x="280" y="440" width="80" height="40" as="geometry"/>
                </mxCell>
                <mxCell id="25" style="edgeStyle=none;html=1;exitX=0.5;exitY=1;exitDx=0;exitDy=0;entryX=0.5;entryY=0;entryDx=0;entryDy=0;strokeColor=#000000;fontColor=#000000;" edge="1" parent="1" source="23" target="5">
                    <mxGeometry relative="1" as="geometry"/>
                </mxCell>
                <mxCell id="23" value="reprobados = 0" style="whiteSpace=wrap;html=1;strokeColor=#000000;fontColor=#000000;fillColor=#9999FF;" vertex="1" parent="1">
                    <mxGeometry x="140" y="200" width="120" height="40" as="geometry"/>
                </mxCell>
                <mxCell id="29" style="edgeStyle=none;html=1;exitX=0.5;exitY=1;exitDx=0;exitDy=0;entryX=0.5;entryY=0;entryDx=0;entryDy=0;strokeColor=#000000;fontColor=#000000;" edge="1" parent="1" source="27" target="7">
                    <mxGeometry relative="1" as="geometry"/>
                </mxCell>
                <mxCell id="27" value="parcial1,&lt;br&gt;parcial2,&lt;br&gt;parcial3" style="shape=parallelogram;perimeter=parallelogramPerimeter;whiteSpace=wrap;html=1;fixedSize=1;strokeColor=#000000;fontColor=#000000;fillColor=#FFFF99;" vertex="1" parent="1">
                    <mxGeometry x="140" y="400" width="120" height="60" as="geometry"/>
                </mxCell>
                <mxCell id="34" style="edgeStyle=none;html=1;endArrow=none;endFill=0;strokeColor=#000000;fontColor=#000000;" edge="1" parent="1" source="30">
                    <mxGeometry relative="1" as="geometry">
                        <mxPoint x="200" y="260" as="targetPoint"/>
                        <Array as="points">
                            <mxPoint x="200" y="960"/>
                            <mxPoint x="40" y="960"/>
                            <mxPoint x="40" y="260"/>
                        </Array>
                    </mxGeometry>
                </mxCell>
                <mxCell id="30" value="codigo" style="shape=parallelogram;perimeter=parallelogramPerimeter;whiteSpace=wrap;html=1;fixedSize=1;strokeColor=#000000;fontColor=#000000;fillColor=#FFFF99;" vertex="1" parent="1">
                    <mxGeometry x="160" y="880" width="80" height="40" as="geometry"/>
                </mxCell>
                <mxCell id="32" value="" style="endArrow=classic;html=1;entryX=0.5;entryY=0;entryDx=0;entryDy=0;strokeColor=#000000;fontColor=#000000;" edge="1" parent="1" target="30">
                    <mxGeometry width="50" height="50" relative="1" as="geometry">
                        <mxPoint x="200" y="840" as="sourcePoint"/>
                        <mxPoint x="250" y="835.5" as="targetPoint"/>
                    </mxGeometry>
                </mxCell>
                <mxCell id="35" value="&lt;font color=&quot;#000000&quot;&gt;True&lt;/font&gt;" style="text;html=1;align=center;verticalAlign=middle;resizable=0;points=[];autosize=1;strokeColor=none;fillColor=none;fontColor=#FF9999;" vertex="1" parent="1">
                    <mxGeometry x="260" y="700" width="40" height="20" as="geometry"/>
                </mxCell>
                <mxCell id="36" value="&lt;span style=&quot;color: rgb(0 , 0 , 0)&quot;&gt;False&lt;/span&gt;" style="text;html=1;align=center;verticalAlign=middle;resizable=0;points=[];autosize=1;strokeColor=none;fillColor=none;fontColor=#FF9999;" vertex="1" parent="1">
                    <mxGeometry x="90" y="700" width="50" height="20" as="geometry"/>
                </mxCell>
                <mxCell id="37" value="&lt;font color=&quot;#000000&quot;&gt;True&lt;/font&gt;" style="text;html=1;align=center;verticalAlign=middle;resizable=0;points=[];autosize=1;strokeColor=none;fillColor=none;fontColor=#FF9999;" vertex="1" parent="1">
                    <mxGeometry x="160" y="360" width="40" height="20" as="geometry"/>
                </mxCell>
                <mxCell id="38" value="&lt;span style=&quot;color: rgb(0 , 0 , 0)&quot;&gt;False&lt;/span&gt;" style="text;html=1;align=center;verticalAlign=middle;resizable=0;points=[];autosize=1;strokeColor=none;fillColor=none;fontColor=#FF9999;" vertex="1" parent="1">
                    <mxGeometry x="240" y="300" width="50" height="20" as="geometry"/>
                </mxCell>
            </root>
        </mxGraphModel>
    </diagram>
</mxfile>